{
	"asset":{
		"generator":"Khronos glTF Blender I/O v4.1.63",
		"version":"2.0"
	},
	"extensionsUsed":[
		"KHR_materials_specular",
		"KHR_materials_ior"
	],
	"scene":0,
	"scenes":[
		{
			"name":"Scene",
			"nodes":[
				4
			]
		}
	],
	"nodes":[
		{
			"name":"lid",
			"rotation":[
				-0.3136078119277954,
				-1.1319549031441056e-07,
				3.738496445748751e-08,
				0.9495526552200317
			],
			"translation":[
				1.6543612251060553e-24,
				0.30490797758102417,
				0
			]
		},
		{
			"children":[
				0
			],
			"name":"box",
			"rotation":[
				0.31360775232315063,
				-1.3066900293359818e-23,
				-6.963490946602105e-17,
				0.9495526552200317
			],
			"scale":[
				1,
				0.9999999403953552,
				0.9999998211860657
			]
		},
		{
			"mesh":0,
			"name":"Treasure_Chest_Bottom_Model",
			"skin":0
		},
		{
			"mesh":1,
			"name":"Treasure_Chest_Top_Model",
			"skin":0
		},
		{
			"children":[
				2,
				3,
				1
			],
			"name":"\u30a2\u30fc\u30de\u30c1\u30e5\u30a2"
		}
	],
	"animations":[
		{
			"channels":[
				{
					"sampler":0,
					"target":{
						"node":1,
						"path":"translation"
					}
				},
				{
					"sampler":1,
					"target":{
						"node":1,
						"path":"rotation"
					}
				},
				{
					"sampler":2,
					"target":{
						"node":1,
						"path":"scale"
					}
				},
				{
					"sampler":3,
					"target":{
						"node":0,
						"path":"translation"
					}
				},
				{
					"sampler":4,
					"target":{
						"node":0,
						"path":"rotation"
					}
				},
				{
					"sampler":5,
					"target":{
						"node":0,
						"path":"scale"
					}
				}
			],
			"name":"open",
			"samplers":[
				{
					"input":13,
					"interpolation":"STEP",
					"output":14
				},
				{
					"input":13,
					"interpolation":"STEP",
					"output":15
				},
				{
					"input":13,
					"interpolation":"STEP",
					"output":16
				},
				{
					"input":13,
					"interpolation":"STEP",
					"output":17
				},
				{
					"input":18,
					"interpolation":"LINEAR",
					"output":19
				},
				{
					"input":18,
					"interpolation":"LINEAR",
					"output":20
				}
			]
		}
	],
	"materials":[
		{
			"doubleSided":true,
			"extensions":{
				"KHR_materials_specular":{
					"specularFactor":0
				},
				"KHR_materials_ior":{
					"ior":1.4500000476837158
				}
			},
			"name":"Material",
			"pbrMetallicRoughness":{
				"baseColorTexture":{
					"index":0
				},
				"metallicFactor":0,
				"roughnessFactor":0.5
			}
		}
	],
	"meshes":[
		{
			"name":"Cube.130",
			"primitives":[
				{
					"attributes":{
						"POSITION":0,
						"NORMAL":1,
						"TEXCOORD_0":2,
						"JOINTS_0":3,
						"WEIGHTS_0":4
					},
					"indices":5,
					"material":0
				}
			]
		},
		{
			"name":"Cylinder.166",
			"primitives":[
				{
					"attributes":{
						"POSITION":7,
						"NORMAL":8,
						"TEXCOORD_0":9,
						"JOINTS_0":10,
						"WEIGHTS_0":11
					},
					"indices":12,
					"material":0
				}
			]
		}
	],
	"textures":[
		{
			"sampler":0,
			"source":0
		}
	],
	"images":[
		{
			"mimeType":"image/png",
			"name":"Treasure_Chest_Basecolor",
			"uri":"Treasure_Chest_Basecolor.png"
		}
	],
	"skins":[
		{
			"inverseBindMatrices":6,
			"joints":[
				1,
				0
			],
			"name":"\u30a2\u30fc\u30de\u30c1\u30e5\u30a2"
		}
	],
	"accessors":[
		{
			"bufferView":0,
			"componentType":5126,
			"count":1057,
			"max":[
				0.3285333216190338,
				0.2542389929294586,
				0.17683430016040802
			],
			"min":[
				-0.3285333216190338,
				-0.0004991883761249483,
				-0.17683430016040802
			],
			"type":"VEC3"
		},
		{
			"bufferView":1,
			"componentType":5126,
			"count":1057,
			"type":"VEC3"
		},
		{
			"bufferView":2,
			"componentType":5126,
			"count":1057,
			"type":"VEC2"
		},
		{
			"bufferView":3,
			"componentType":5121,
			"count":1057,
			"type":"VEC4"
		},
		{
			"bufferView":4,
			"componentType":5126,
			"count":1057,
			"type":"VEC4"
		},
		{
			"bufferView":5,
			"componentType":5123,
			"count":2478,
			"type":"SCALAR"
		},
		{
			"bufferView":6,
			"componentType":5126,
			"count":2,
			"type":"MAT4"
		},
		{
			"bufferView":7,
			"componentType":5126,
			"count":1089,
			"max":[
				0.32744017243385315,
				0.4502621293067932,
				0.1963425725698471
			],
			"min":[
				-0.3274373710155487,
				0.17202195525169373,
				-0.17926713824272156
			],
			"type":"VEC3"
		},
		{
			"bufferView":8,
			"componentType":5126,
			"count":1089,
			"type":"VEC3"
		},
		{
			"bufferView":9,
			"componentType":5126,
			"count":1089,
			"type":"VEC2"
		},
		{
			"bufferView":10,
			"componentType":5121,
			"count":1089,
			"type":"VEC4"
		},
		{
			"bufferView":11,
			"componentType":5126,
			"count":1089,
			"type":"VEC4"
		},
		{
			"bufferView":12,
			"componentType":5123,
			"count":2700,
			"type":"SCALAR"
		},
		{
			"bufferView":13,
			"componentType":5126,
			"count":2,
			"max":[
				2.5
			],
			"min":[
				0.041666666666666664
			],
			"type":"SCALAR"
		},
		{
			"bufferView":14,
			"componentType":5126,
			"count":2,
			"type":"VEC3"
		},
		{
			"bufferView":15,
			"componentType":5126,
			"count":2,
			"type":"VEC4"
		},
		{
			"bufferView":16,
			"componentType":5126,
			"count":2,
			"type":"VEC3"
		},
		{
			"bufferView":17,
			"componentType":5126,
			"count":2,
			"type":"VEC3"
		},
		{
			"bufferView":18,
			"componentType":5126,
			"count":60,
			"max":[
				2.5
			],
			"min":[
				0.041666666666666664
			],
			"type":"SCALAR"
		},
		{
			"bufferView":19,
			"componentType":5126,
			"count":60,
			"type":"VEC4"
		},
		{
			"bufferView":20,
			"componentType":5126,
			"count":60,
			"type":"VEC3"
		}
	],
	"bufferViews":[
		{
			"buffer":0,
			"byteLength":12684,
			"byteOffset":0,
			"target":34962
		},
		{
			"buffer":0,
			"byteLength":12684,
			"byteOffset":12684,
			"target":34962
		},
		{
			"buffer":0,
			"byteLength":8456,
			"byteOffset":25368,
			"target":34962
		},
		{
			"buffer":0,
			"byteLength":4228,
			"byteOffset":33824,
			"target":34962
		},
		{
			"buffer":0,
			"byteLength":16912,
			"byteOffset":38052,
			"target":34962
		},
		{
			"buffer":0,
			"byteLength":4956,
			"byteOffset":54964,
			"target":34963
		},
		{
			"buffer":0,
			"byteLength":128,
			"byteOffset":59920
		},
		{
			"buffer":0,
			"byteLength":13068,
			"byteOffset":60048,
			"target":34962
		},
		{
			"buffer":0,
			"byteLength":13068,
			"byteOffset":73116,
			"target":34962
		},
		{
			"buffer":0,
			"byteLength":8712,
			"byteOffset":86184,
			"target":34962
		},
		{
			"buffer":0,
			"byteLength":4356,
			"byteOffset":94896,
			"target":34962
		},
		{
			"buffer":0,
			"byteLength":17424,
			"byteOffset":99252,
			"target":34962
		},
		{
			"buffer":0,
			"byteLength":5400,
			"byteOffset":116676,
			"target":34963
		},
		{
			"buffer":0,
			"byteLength":8,
			"byteOffset":122076
		},
		{
			"buffer":0,
			"byteLength":24,
			"byteOffset":122084
		},
		{
			"buffer":0,
			"byteLength":32,
			"byteOffset":122108
		},
		{
			"buffer":0,
			"byteLength":24,
			"byteOffset":122140
		},
		{
			"buffer":0,
			"byteLength":24,
			"byteOffset":122164
		},
		{
			"buffer":0,
			"byteLength":240,
			"byteOffset":122188
		},
		{
			"buffer":0,
			"byteLength":960,
			"byteOffset":122428
		},
		{
			"buffer":0,
			"byteLength":720,
			"byteOffset":123388
		}
	],
	"samplers":[
		{
			"magFilter":9729,
			"minFilter":9987
		}
	],
	"buffers":[
		{
			"byteLength":124108,
			"uri":"Box.bin"
		}
	]
}
